<svg width="66" height="40" viewBox="0 0 66 40" fill="none" xmlns="http://www.w3.org/2000/svg">
<path fill-rule="evenodd" clip-rule="evenodd" d="M56.2072 19.9286C56.2072 22.5714 58.3662 24.7143 61.029 24.7143C63.6918 24.7143 65.8509 22.5714 65.8509 19.9286C65.8509 17.2857 63.6918 15.1429 61.029 15.1429C60.3453 15.1429 59.6616 15.2857 59.0859 15.5357C58.9419 15.6071 58.798 15.6429 58.6181 15.6071C58.0064 15.6071 57.5026 15.0714 57.5386 14.4643C57.5386 14.25 57.6105 14.0714 57.6825 13.9286C58.2582 13 58.6181 11.9286 58.6181 10.75C58.6181 7.46429 55.9193 4.78571 52.6087 4.78571C49.2982 4.78571 46.5994 7.46429 46.5994 10.75C46.5994 11.9643 46.9592 13.0714 47.571 14C47.6789 14.1786 47.7509 14.4286 47.7509 14.6786C47.7509 15.3571 47.1751 15.8929 46.4914 15.8929C46.3115 15.8929 46.1316 15.8571 45.9517 15.7857C45.0521 15.3571 44.0445 15.1429 42.965 15.1429C41.8135 15.1429 40.734 15.3929 39.7984 15.8571C39.5825 15.9643 39.3666 16 39.1147 16C38.2511 16 37.5314 15.2857 37.5314 14.4286C37.5314 14.1429 37.6034 13.8929 37.7113 13.6786C38.467 12.3571 38.9348 10.7857 38.9348 9.14286C38.9348 4.10714 34.7966 0 29.6869 0C24.6131 0 20.4749 4.10714 20.4749 9.14286C20.4749 10.6429 20.8348 12.0714 21.4825 13.3571C21.6264 13.6071 21.6984 13.9286 21.7344 14.2143C21.8423 15.5357 20.8708 16.6786 19.5394 16.7857C19.0716 16.8214 18.6038 16.7143 18.208 16.5C16.4807 15.6071 14.5376 15.1071 12.4505 15.1071C5.57753 15.1429 0 20.6786 0 27.5C0 34.3214 5.57753 39.8571 12.4505 39.8571C19.3235 39.8571 24.901 34.3214 24.901 27.5C24.901 25.1429 24.2173 22.9286 23.0658 21.0357C22.8859 20.75 22.7419 20.3929 22.706 20.0357C22.562 18.7143 23.5336 17.5357 24.865 17.4286C25.2968 17.3929 25.6926 17.4643 26.0525 17.6071C27.168 18.0714 28.3914 18.3571 29.6869 18.3571C31.3421 18.3571 32.9254 17.9286 34.2569 17.1429C34.4728 17.0357 34.7247 16.9643 35.0125 16.9643C35.8761 16.9643 36.5958 17.6786 36.5958 18.5357C36.5958 18.7857 36.5239 19 36.4519 19.2143C35.9841 20.1786 35.7322 21.2143 35.7322 22.3571C35.7322 26.3214 38.9708 29.5357 42.965 29.5357C46.9592 29.5357 50.1978 26.3214 50.1978 22.3571C50.1978 20.7857 49.694 19.3571 48.8304 18.1786C48.6865 17.9643 48.6145 17.75 48.6145 17.4643C48.6145 16.7857 49.1903 16.25 49.874 16.25C50.0179 16.25 50.1618 16.2857 50.3058 16.3214C50.9895 16.6071 51.7811 16.75 52.5728 16.75C53.5803 16.75 54.5159 16.5 55.3435 16.0714C55.4875 16 55.6674 15.9643 55.8473 15.9643C56.459 16 56.9268 16.5 56.9268 17.1071C56.9268 17.2857 56.8909 17.4286 56.8189 17.5714C56.4231 18.25 56.2072 19.0714 56.2072 19.9286Z" fill="#00ABAA"/>
</svg>
