<svg width="181" height="82" viewBox="0 0 181 82" fill="none" xmlns="http://www.w3.org/2000/svg">
<g clip-path="url(#clip0_1_1339)">
<mask id="mask0_1_1339" style="mask-type:luminance" maskUnits="userSpaceOnUse" x="0" y="26" width="181" height="40">
<path d="M181 26H0V66H181V26Z" fill="white"/>
</mask>
<g mask="url(#mask0_1_1339)">
<mask id="mask1_1_1339" style="mask-type:luminance" maskUnits="userSpaceOnUse" x="0" y="26" width="181" height="40">
<path d="M180.892 26H0V65.8214H180.892V26Z" fill="white"/>
</mask>
<g mask="url(#mask1_1_1339)">
<path fill-rule="evenodd" clip-rule="evenodd" d="M158.653 49.2499V46.2856H143.18V33.8928H158.653V30.9285H143.684C142.749 30.9285 141.921 31.2499 141.273 31.9285C140.589 32.6071 140.266 33.3928 140.266 34.3571V45.8928C140.266 46.8214 140.589 47.6428 141.273 48.2856C141.957 48.9642 142.749 49.2856 143.684 49.2856H158.653V49.2499Z" fill="#00ABAA"/>
<path fill-rule="evenodd" clip-rule="evenodd" d="M96.4014 49.2499H113.35V46.2856H99.3161V41.5714H110.615V38.6071H99.3161V33.8928H113.35V30.9285H96.4014V49.2499Z" fill="#00ABAA"/>
<path fill-rule="evenodd" clip-rule="evenodd" d="M70.8887 49.2499H73.7674V34.9999L81.2881 43.7856L88.7368 34.9642V49.2499H91.6515V30.9285H88.269L81.2881 39.2142L74.2712 30.9285H70.8887V49.2499Z" fill="#00ABAA"/>
<path fill-rule="evenodd" clip-rule="evenodd" d="M70.8887 59.8929H71.5724V55.5001L73.5515 58.1786H73.6594L75.6026 55.4644V59.8572H76.2863V54.4644H75.6386L73.6594 57.2501L71.6084 54.4644H70.8887V59.8929ZM77.8696 59.8929H81.0362V59.2858H78.5173V57.4644H80.7123V56.8572H78.5173V55.1072H80.9642V54.5001H77.8696V59.8929ZM81.6839 60.8929H82.2956V59.8929H86.5777V60.8929H87.1895V59.2501H86.4338V54.4644H83.1952L83.1233 55.5715C83.0153 57.8572 82.4396 59.0358 82.2237 59.3215H81.6839V60.8929ZM83.807 56.0358L83.8789 55.0715H85.7861V59.2858H83.0153C83.2312 59.0358 83.663 57.9286 83.807 56.0358ZM88.8447 59.8929L92.1913 55.5358V59.8929H92.875V54.4644H92.2992L88.9527 58.8215V54.4644H88.269V59.9286H88.8447V59.8929ZM94.4942 59.8929H98.8843V60.8929H99.496V59.2501H98.7404V54.4644H98.0567V59.2858H95.106V54.4644H94.4223V59.8929H94.4942ZM101.151 59.8929L104.498 55.5358V59.8929H105.182V54.4644H104.606L101.259 58.8215V54.4644H100.576V59.9286H101.151V59.8929ZM110.507 59.8929H111.191V54.4644H110.507V56.8215H107.485V54.4644H106.801V59.9286H107.485V57.4286H110.507V59.8929ZM112.09 59.8929H112.774L113.458 58.2501H115.977L116.696 59.8929H117.416L115.041 54.4286H114.465L112.09 59.8929ZM114.717 55.2858L115.689 57.6072H113.71L114.717 55.2858ZM124.109 54.4644H123.318L120.907 57.0715L123.389 59.9286H124.253L121.698 57.0358L124.109 54.4644ZM120.079 59.8929H120.763V54.4644H120.079V59.8929ZM124.469 57.1786C124.469 58.8215 125.692 59.9644 127.276 59.9644C128.859 59.9644 130.083 58.7858 130.083 57.1786C130.083 55.5358 128.859 54.3929 127.276 54.3929C125.62 54.3572 124.469 55.6072 124.469 57.1786ZM125.153 57.1786C125.153 55.8929 126.052 55.0001 127.24 55.0001C128.427 55.0001 129.327 55.8929 129.327 57.1786C129.327 58.3929 128.499 59.3572 127.24 59.3572C126.088 59.3572 125.153 58.4286 125.153 57.1786ZM131.27 59.8929H131.954V55.5001L133.933 58.1786H134.041L135.984 55.4644V59.8572H136.668V54.4644H136.02L134.041 57.2501L131.99 54.4644H131.306V59.8929H131.27ZM141.921 59.8929H142.605V54.4644H138.287V59.9286H138.971V55.0715H141.957V59.8929H141.921ZM144.224 59.8929H147.391V59.2858H144.872V57.4644H147.067V56.8572H144.872V55.1072H147.319V54.5001H144.224V59.8929ZM148.003 55.0715H149.91V59.8929H150.593V55.0715H152.501V54.4644H148.003V55.0715ZM153.4 59.8929H156.567V59.2858H154.048V57.4644H156.243V56.8572H154.048V55.1072H156.495V54.5001H153.4V59.8929ZM161.605 59.8929H162.288V54.4644H161.605V56.8215H158.582V54.4644H157.898V59.9286H158.582V57.4286H161.605V59.8929ZM163.908 59.8929H168.298V60.8929H168.909V59.2501H168.154V54.4644H167.47V59.2858H164.519V54.4644H163.836V59.8929H163.908ZM170.565 59.8929L173.911 55.5358V59.8929H174.595V54.4644H174.019L170.673 58.8215V54.4644H169.989V59.9286H170.565V59.8929ZM176.79 59.8929L180.136 55.5358V59.8929H180.82V54.4644H180.244L176.898 58.8215V54.4644H176.214V59.9286H176.79V59.8929ZM177.078 53.2144C177.186 53.7858 177.725 54.1786 178.553 54.1786C179.309 54.1786 179.92 53.7858 179.992 53.2144H179.381C179.309 53.5715 178.985 53.7144 178.589 53.7144C178.157 53.7144 177.869 53.5358 177.761 53.2144H177.078Z" fill="#00ABAA"/>
<path fill-rule="evenodd" clip-rule="evenodd" d="M56.2072 45.9286C56.2072 48.5714 58.3662 50.7143 61.029 50.7143C63.6918 50.7143 65.8509 48.5714 65.8509 45.9286C65.8509 43.2857 63.6918 41.1429 61.029 41.1429C60.3453 41.1429 59.6616 41.2857 59.0859 41.5357C58.9419 41.6071 58.798 41.6429 58.6181 41.6071C58.0064 41.6071 57.5026 41.0714 57.5386 40.4643C57.5386 40.25 57.6105 40.0714 57.6825 39.9286C58.2582 39 58.6181 37.9286 58.6181 36.75C58.6181 33.4643 55.9193 30.7857 52.6087 30.7857C49.2982 30.7857 46.5994 33.4643 46.5994 36.75C46.5994 37.9643 46.9592 39.0714 47.571 40C47.6789 40.1786 47.7509 40.4286 47.7509 40.6786C47.7509 41.3571 47.1751 41.8929 46.4914 41.8929C46.3115 41.8929 46.1316 41.8571 45.9517 41.7857C45.0521 41.3571 44.0445 41.1429 42.965 41.1429C41.8135 41.1429 40.734 41.3929 39.7984 41.8571C39.5825 41.9643 39.3666 42 39.1147 42C38.2511 42 37.5314 41.2857 37.5314 40.4286C37.5314 40.1429 37.6034 39.8929 37.7113 39.6786C38.467 38.3571 38.9348 36.7857 38.9348 35.1429C38.9348 30.1071 34.7966 26 29.6869 26C24.6131 26 20.4749 30.1071 20.4749 35.1429C20.4749 36.6429 20.8348 38.0714 21.4825 39.3571C21.6264 39.6071 21.6984 39.9286 21.7344 40.2143C21.8423 41.5357 20.8708 42.6786 19.5394 42.7857C19.0716 42.8214 18.6038 42.7143 18.208 42.5C16.4807 41.6071 14.5376 41.1071 12.4505 41.1071C5.57753 41.1429 0 46.6786 0 53.5C0 60.3214 5.57753 65.8571 12.4505 65.8571C19.3235 65.8571 24.901 60.3214 24.901 53.5C24.901 51.1429 24.2173 48.9286 23.0658 47.0357C22.8859 46.75 22.7419 46.3929 22.706 46.0357C22.562 44.7143 23.5336 43.5357 24.865 43.4286C25.2968 43.3929 25.6926 43.4643 26.0525 43.6071C27.168 44.0714 28.3914 44.3571 29.6869 44.3571C31.3421 44.3571 32.9254 43.9286 34.2569 43.1429C34.4728 43.0357 34.7247 42.9643 35.0125 42.9643C35.8761 42.9643 36.5958 43.6786 36.5958 44.5357C36.5958 44.7857 36.5239 45 36.4519 45.2143C35.9841 46.1786 35.7322 47.2143 35.7322 48.3571C35.7322 52.3214 38.9708 55.5357 42.965 55.5357C46.9592 55.5357 50.1978 52.3214 50.1978 48.3571C50.1978 46.7857 49.694 45.3571 48.8304 44.1786C48.6865 43.9643 48.6145 43.75 48.6145 43.4643C48.6145 42.7857 49.1903 42.25 49.874 42.25C50.0179 42.25 50.1618 42.2857 50.3058 42.3214C50.9895 42.6071 51.7811 42.75 52.5728 42.75C53.5803 42.75 54.5159 42.5 55.3435 42.0714C55.4875 42 55.6674 41.9643 55.8473 41.9643C56.459 42 56.9268 42.5 56.9268 43.1071C56.9268 43.2857 56.8909 43.4286 56.8189 43.5714C56.4231 44.25 56.2072 45.0714 56.2072 45.9286Z" fill="#00ABAA"/>
<path fill-rule="evenodd" clip-rule="evenodd" d="M120.546 40.0714V46.3571H128.355C130.046 46.3571 131.126 45.9642 132.277 44.7499C132.997 43.9999 133.393 43.2142 133.393 41.7142V40.0714V38.4285C133.393 36.9285 132.961 36.1428 132.277 35.3928C131.126 34.1785 130.01 33.7856 128.355 33.7856H120.546V40.0714ZM136.595 40.0714V41.7142C136.595 43.6428 135.876 45.3928 134.652 46.7142C132.997 48.5714 130.658 49.2142 128.247 49.2142H117.344V40.0714V30.9285H128.247C130.694 30.9285 132.997 31.5713 134.652 33.4285C135.84 34.7499 136.595 36.4999 136.595 38.4285V40.0714Z" fill="#00ABAA"/>
<path fill-rule="evenodd" clip-rule="evenodd" d="M162.576 30.9285V49.2499H166.031L178.013 35.0713V49.2499H180.892V30.9285H177.618L165.491 45.2499V30.9285H162.576Z" fill="#00ABAA"/>
</g>
</g>
</g>
<defs>
<clipPath id="clip0_1_1339">
<rect width="181" height="40" fill="white" transform="translate(0 26)"/>
</clipPath>
</defs>
</svg>
