<svg width="117" height="39" viewBox="0 0 117 39" fill="none" xmlns="http://www.w3.org/2000/svg">
<g opacity="0.7" clip-path="url(#clip0_18_56)">
<path opacity="0.1" fill-rule="evenodd" clip-rule="evenodd" d="M111.716 0.159912H5.16697C2.31372 0.159912 0 2.51036 0 5.40866V33.7508C0 36.6495 2.31372 39.0002 5.16697 39.0002H111.716C114.568 39.0002 116.881 36.6495 116.881 33.7508V5.40866C116.881 2.51036 114.568 0.159912 111.716 0.159912ZM111.716 0.856341C114.186 0.856341 116.196 2.8985 116.196 5.40866V33.7508C116.196 36.2614 114.186 38.3038 111.716 38.3038H5.16697C2.69603 38.3038 0.685547 36.2614 0.685547 33.7508V5.40866C0.685547 2.8985 2.69603 0.856341 5.16697 0.856341H111.716Z" fill="white"/>
<path fill-rule="evenodd" clip-rule="evenodd" d="M71.8206 18.2762L70.8126 18.8521H69.8368C70.1988 19.1565 70.9545 19.796 70.9545 21.0124C70.9545 22.1954 70.2932 22.7565 69.6314 23.284C69.4267 23.4915 69.1904 23.7164 69.1904 24.0688C69.1904 24.4201 69.4267 24.6123 69.6003 24.7564L70.1677 25.2036C70.8606 25.7955 71.4899 26.3399 71.4899 27.4444C71.4899 28.948 70.0564 30.4676 67.3483 30.4676C65.0643 30.4676 63.9624 29.364 63.9624 28.1794C63.9624 27.6034 64.2446 26.7882 65.1749 26.2275C66.1507 25.6195 67.4747 25.5404 68.1828 25.4912C67.9616 25.2036 67.7103 24.8994 67.7103 24.4043C67.7103 24.1327 67.7893 23.9725 67.8677 23.7796C67.6941 23.7958 67.5211 23.8116 67.3632 23.8116C65.6945 23.8116 64.7494 22.5476 64.7494 21.3003C64.7494 20.5642 65.0805 19.748 65.7569 19.1565C66.655 18.4043 67.7258 18.2762 68.577 18.2762H71.8206ZM68.4615 25.9397L68.3565 25.9394C68.2148 25.9394 67.3632 25.9722 66.7025 26.1969C66.3561 26.3239 65.3479 26.7078 65.3479 27.8442C65.3479 28.9796 66.4352 29.797 68.1205 29.797C69.6314 29.797 70.4356 29.0594 70.4356 28.0682C70.4356 27.2508 69.9155 26.8204 68.7183 25.9564C68.6238 25.9437 68.5557 25.9405 68.4615 25.9397ZM106.016 18.1414L107.664 22.5036C108.026 23.4995 108.251 24.2182 108.338 24.6605H108.393C108.453 24.4228 108.578 24.0172 108.768 23.442C108.958 22.8672 109.579 21.1008 110.633 18.1414H111.856L108.62 26.8517C108.299 27.7125 107.925 28.323 107.496 28.6842C107.068 29.0445 106.542 29.2244 105.92 29.2244C105.571 29.2244 105.228 29.1849 104.889 29.106V28.1779C105.141 28.2339 105.423 28.2619 105.734 28.2619C106.518 28.2619 107.076 27.8153 107.411 26.9215L107.829 25.833L104.793 18.1414H106.016ZM90.9629 18.0019C91.9615 18.0019 92.7323 18.3487 93.2748 19.0419C93.8175 19.7353 94.089 20.7077 94.089 21.9592C94.089 23.2155 93.8129 24.1912 93.2615 24.8874C92.7092 25.5827 91.9434 25.9302 90.9629 25.9302C90.4725 25.9302 90.0248 25.8385 89.6199 25.6549C89.2145 25.4711 88.8743 25.1883 88.5994 24.8069H88.5171C88.5719 25.2535 88.5994 25.677 88.5994 26.0769V29.2243H87.4595V18.1414H88.3866L88.5445 19.1883H88.5994C88.8928 18.7693 89.2342 18.4673 89.6233 18.2811C90.0125 18.0949 90.4595 18.0019 90.9629 18.0019ZM41.8563 14.4333C42.71 14.4333 43.5315 14.5614 44.2744 14.7704C45.4599 15.1077 46.0132 15.5248 46.3612 15.766L45.0486 17.0347L44.4956 17.1626L44.8909 16.52C44.3537 15.9905 43.3727 15.0111 41.508 15.0111C39.0101 15.0111 37.1287 16.9391 37.1287 19.7491C37.1287 22.7675 39.2788 25.6101 42.7244 25.6101C43.7374 25.6101 44.258 25.4016 44.7326 25.2085V22.6233L42.3457 22.7517L43.6099 22.0604H46.9615L46.5509 22.4617C46.4394 22.5585 46.4241 22.591 46.3925 22.7183C46.3761 22.8631 46.3612 23.3293 46.3612 23.4899V25.4499L44.1003 25.9799C43.183 26.1247 42.3613 26.2522 41.4922 26.2522C37.1287 26.2522 35.4692 22.992 35.4692 20.4384C35.4692 17.3233 37.8243 14.4333 41.8563 14.4333ZM101.486 18.0158C102.384 18.0158 103.049 18.218 103.482 18.623C103.914 19.0279 104.131 19.677 104.131 20.5703V25.7907H103.286L103.059 24.7017H103.004C102.629 25.1815 102.254 25.5061 101.881 25.6755C101.508 25.8457 101.042 25.9302 100.483 25.9302C99.7365 25.9302 99.1515 25.7347 98.7276 25.344C98.304 24.9531 98.0921 24.3976 98.0921 23.6761C98.0921 22.1317 99.3083 21.3222 101.74 21.2472L103.018 21.2054V20.7309C103.018 20.1306 102.891 19.6872 102.637 19.4014C102.383 19.115 101.976 18.9722 101.417 18.9722C100.79 18.9722 100.08 19.1674 99.2875 19.5583L98.9369 18.672C99.3083 18.4673 99.7146 18.3066 100.157 18.1903C100.599 18.074 101.042 18.0158 101.486 18.0158ZM96.7294 14.931V25.7907H95.5891V14.931H96.7294ZM79.1311 18.054C79.6964 18.054 80.278 18.1972 80.749 18.5007C81.5332 19.026 81.7375 19.7117 81.8465 20.0788L78.158 21.5947L76.949 21.6903C77.3409 23.7155 78.6912 24.8948 80.1831 24.8948C80.9836 24.8948 81.5647 24.6083 82.0983 24.3377L81.2659 25.1351C81.0938 25.2309 80.921 25.3431 80.749 25.4222C80.23 25.6613 79.6964 25.7254 79.2245 25.7254C78.7234 25.7254 77.938 25.6924 77.1366 25.103C76.0228 24.3049 75.5361 22.9334 75.5361 21.7377C75.5361 19.2658 77.5141 18.054 79.1311 18.054ZM51.6355 18.0489C53.9464 18.0489 55.3929 19.8851 55.3929 21.8187C55.3929 23.7027 53.9624 25.7001 51.3992 25.7001C48.899 25.7001 47.5624 23.7192 47.5624 21.9298C47.5624 19.8371 49.2452 18.0489 51.6355 18.0489ZM60.1586 18.0489C62.4689 18.0489 63.9156 19.8851 63.9156 21.8187C63.9156 23.7027 62.4854 25.7001 59.9216 25.7001C57.4219 25.7001 56.0853 23.7192 56.0853 21.9298C56.0853 19.8371 57.7677 18.0489 60.1586 18.0489ZM74.9231 14.0755C74.4322 14.365 74.2746 14.4613 74.2106 15.0231C74.2076 15.0568 74.2053 15.0921 74.2021 15.1267V24.2162C74.2021 24.8432 74.3113 24.9391 74.8333 24.9874C75.1025 25.0194 75.3714 25.035 75.6399 25.0682L75.0552 25.4203H72.2568C72.6206 24.9391 72.6832 24.8904 72.6832 24.5698V14.6552L72.6841 14.6612V14.6538H71.4755L72.6615 14.0755H74.9231ZM51.2262 18.5436C50.7077 18.5436 50.1885 18.7518 49.8112 19.0877C49.1981 19.646 49.088 20.349 49.088 21.0368C49.088 22.617 49.8581 25.22 51.7614 25.22C52.3747 25.22 53.0034 24.9171 53.3649 24.4066C53.7421 23.8949 53.8368 23.2563 53.8368 22.6328C53.8368 21.2269 53.1761 18.5436 51.2262 18.5436ZM59.7491 18.5436C59.2304 18.5436 58.7114 18.7518 58.3341 19.0877C57.721 19.646 57.6102 20.349 57.6102 21.0368C57.6102 22.617 58.3808 25.22 60.2838 25.22C60.897 25.22 61.5261 24.9171 61.8869 24.4066C62.2648 23.8949 62.3592 23.2563 62.3592 22.6328C62.3592 21.2269 61.699 18.5436 59.7491 18.5436ZM102.991 22.0288L101.85 22.0773C100.943 22.1105 100.29 22.2531 99.8885 22.5073C99.4879 22.7608 99.2875 23.1552 99.2875 23.6903C99.2875 24.1086 99.412 24.4278 99.662 24.646C99.9118 24.8649 100.26 24.9742 100.71 24.9742C101.42 24.9742 101.977 24.7765 102.383 24.3811C102.788 23.9858 102.991 23.4319 102.991 22.7197V22.0288ZM90.7979 18.9859C90.0285 18.9859 89.472 19.2025 89.1286 19.635C88.7851 20.0677 88.6087 20.7565 88.5994 21.701V21.9592C88.5994 23.034 88.7758 23.8031 89.1286 24.266C89.4814 24.7289 90.0472 24.9601 90.8253 24.9601C91.4761 24.9601 91.9857 24.6929 92.3545 24.1578C92.7231 23.6232 92.9073 22.8854 92.9073 21.945C92.9073 20.9916 92.7231 20.2594 92.3545 19.7501C91.9857 19.2406 91.4668 18.9859 90.7979 18.9859ZM67.5844 18.8043C67.1744 18.8043 66.7338 19.0121 66.4818 19.3324C66.2144 19.6686 66.1349 20.0999 66.1349 20.5164C66.1349 21.5882 66.7494 23.3643 68.1042 23.3643C68.498 23.3643 68.9223 23.1723 69.1753 22.916C69.537 22.5476 69.5681 22.0362 69.5681 21.7479C69.5681 20.5962 68.8913 18.8043 67.5844 18.8043ZM78.6912 18.5798C78.0625 18.5798 76.8857 19.0745 76.8857 20.7966C76.8857 21.0677 76.9172 21.3546 76.9334 21.6427L79.7908 20.3817C80.0885 20.2705 80.2455 20.1744 80.2455 19.9513C80.2455 19.3139 79.5394 18.5798 78.6912 18.5798ZM83.526 18.0539L83.8174 18.9927H83.8212L84.108 18.0539H84.3066V19.2153H84.1935V18.1533H84.1878L83.8685 19.2153H83.7701L83.4483 18.1533H83.4444V19.2153H83.3302V18.0539H83.526ZM83.1239 18.0539V18.163H82.7813V19.2153H82.6554V18.163H82.3127V18.0539H83.1239ZM37.2813 8.0874C37.4376 8.0874 37.5829 8.10876 37.7178 8.15147C37.8524 8.19396 37.968 8.25339 38.0651 8.32999C38.162 8.40637 38.2386 8.4983 38.2952 8.60555C38.3517 8.71303 38.3798 8.83281 38.3798 8.96513C38.3798 9.12392 38.3364 9.26065 38.2495 9.37533C38.1627 9.49001 38.0498 9.5636 37.9109 9.59587C37.9918 9.61049 38.0685 9.63858 38.141 9.67967C38.2134 9.72076 38.2756 9.77299 38.3277 9.83613C38.3798 9.89951 38.4209 9.9738 38.4515 10.059C38.4817 10.1442 38.497 10.2368 38.497 10.3369C38.497 10.4898 38.4659 10.6301 38.4038 10.7582C38.3414 10.8859 38.2561 10.9962 38.1476 11.0888C38.0388 11.1814 37.9109 11.2536 37.7632 11.3049C37.6156 11.3564 37.455 11.3822 37.2813 11.3822C36.8558 11.3822 36.5272 11.2828 36.2957 11.0844C36.064 10.8859 35.9454 10.6087 35.9397 10.2531H36.6127C36.6154 10.3589 36.6351 10.4499 36.6714 10.5265C36.7075 10.6031 36.7553 10.6653 36.8147 10.7139C36.8739 10.7624 36.9433 10.7977 37.0231 10.8197C37.1026 10.8418 37.1885 10.8529 37.2813 10.8529C37.4403 10.8529 37.5692 10.8037 37.6677 10.705C37.7662 10.6066 37.8153 10.4854 37.8153 10.3413C37.8153 10.2531 37.7993 10.1802 37.7676 10.1228C37.7356 10.0655 37.6922 10.02 37.6373 9.9861C37.5823 9.95244 37.5201 9.92969 37.4506 9.91785C37.3812 9.90601 37.3087 9.90021 37.2335 9.90021H36.9991V9.43267C37.0251 9.43569 37.0569 9.43708 37.0946 9.43708H37.1814C37.5548 9.43708 37.7415 9.29431 37.7415 9.00924C37.7415 8.88574 37.6988 8.7901 37.6136 8.72255C37.5281 8.65476 37.4159 8.6211 37.277 8.6211C37.109 8.6211 36.9753 8.66219 36.8755 8.7446C36.7756 8.82701 36.7182 8.94471 36.7038 9.09746H36.0613C36.064 8.92103 36.099 8.76967 36.1655 8.64315C36.232 8.51663 36.3211 8.4124 36.4326 8.32999C36.5439 8.24781 36.6728 8.18653 36.819 8.14683C36.965 8.10714 37.1193 8.0874 37.2813 8.0874ZM51.2617 8.0874C51.418 8.0874 51.5633 8.10876 51.6982 8.15147C51.8328 8.19396 51.9484 8.25339 52.0455 8.32999C52.1424 8.40637 52.219 8.4983 52.2756 8.60555C52.3321 8.71303 52.3602 8.83281 52.3602 8.96513C52.3602 9.12392 52.3168 9.26065 52.2299 9.37533C52.1431 9.49001 52.0302 9.5636 51.8913 9.59587C51.9722 9.61049 52.0489 9.63858 52.1214 9.67967C52.1938 9.72076 52.256 9.77299 52.3081 9.83613C52.3602 9.89951 52.4013 9.9738 52.4319 10.059C52.4621 10.1442 52.4774 10.2368 52.4774 10.3369C52.4774 10.4898 52.4463 10.6301 52.3842 10.7582C52.3218 10.8859 52.2366 10.9962 52.128 11.0888C52.0192 11.1814 51.8913 11.2536 51.7436 11.3049C51.596 11.3564 51.4354 11.3822 51.2617 11.3822C50.8362 11.3822 50.5076 11.2828 50.2761 11.0844C50.0444 10.8859 49.9258 10.6087 49.9201 10.2531H50.5931C50.5958 10.3589 50.6155 10.4499 50.6518 10.5265C50.6879 10.6031 50.7357 10.6653 50.7951 10.7139C50.8543 10.7624 50.9237 10.7977 51.0035 10.8197C51.083 10.8418 51.1689 10.8529 51.2617 10.8529C51.4208 10.8529 51.5496 10.8037 51.6481 10.705C51.7466 10.6066 51.7957 10.4854 51.7957 10.3413C51.7957 10.2531 51.7797 10.1802 51.748 10.1228C51.716 10.0655 51.6726 10.02 51.6177 9.9861C51.5627 9.95244 51.5005 9.92969 51.431 9.91785C51.3616 9.90601 51.2891 9.90021 51.2139 9.90021H50.9795V9.43267C51.0055 9.43569 51.0373 9.43708 51.075 9.43708H51.1618C51.5352 9.43708 51.7219 9.29431 51.7219 9.00924C51.7219 8.88574 51.6792 8.7901 51.594 8.72255C51.5085 8.65476 51.3963 8.6211 51.2574 8.6211C51.0894 8.6211 50.9557 8.66219 50.8559 8.7446C50.756 8.82701 50.6986 8.94471 50.6842 9.09746H50.0417C50.0444 8.92103 50.0794 8.76967 50.1459 8.64315C50.2124 8.51663 50.3015 8.4124 50.413 8.32999C50.5243 8.24781 50.6532 8.18653 50.7994 8.14683C50.9454 8.10714 51.0997 8.0874 51.2617 8.0874ZM47.7622 8.16236L48.6045 9.80315L49.2341 8.16236H49.9462L48.9779 10.4736C48.9085 10.6354 48.8381 10.7728 48.7673 10.8859C48.6964 10.9991 48.6183 11.0918 48.5328 11.1637C48.4473 11.2359 48.3548 11.2882 48.2549 11.3204C48.1551 11.3527 48.0429 11.369 47.9185 11.369C47.8431 11.369 47.7759 11.3587 47.7165 11.3381C47.6571 11.3174 47.6132 11.2984 47.5842 11.2807V10.7206C47.616 10.7382 47.6544 10.7538 47.6994 10.7668C47.7442 10.78 47.7997 10.7867 47.8664 10.7867C48.0719 10.7867 48.1964 10.7001 48.2398 10.5265L46.9981 8.16236H47.7622ZM61.1435 8.16236V8.74458H59.5067V9.41942H61.0089V9.95752H59.5067V10.7294H61.178V11.3116H58.825V8.16236H61.1435ZM58.469 8.16232V8.74453H57.5399V11.3116H56.8582V8.74453H55.9291V8.16232H58.469ZM40.5029 8.16232L41.6622 11.3116H40.9545L40.72 10.6103H39.5607L39.3176 11.3116H38.6316L39.8039 8.16232H40.5029ZM44.1064 8.16236V8.74458H42.6346V11.3116H41.9529V8.16236H44.1064ZM45.8214 8.16232C46.0154 8.16232 46.1804 8.1911 46.3164 8.24844C46.4526 8.30555 46.5632 8.38146 46.6486 8.47548C46.7339 8.56973 46.7963 8.67767 46.8353 8.79978C46.8744 8.92165 46.8938 9.04608 46.8938 9.17237C46.8938 9.3019 46.8744 9.4268 46.8353 9.54728C46.7963 9.66799 46.7339 9.77524 46.6486 9.86926C46.5632 9.96351 46.4526 10.0392 46.3164 10.0965C46.1804 10.1539 46.0154 10.1824 45.8214 10.1824H45.105V11.3116H44.4234V8.16232H45.8214ZM53.6148 8.16236V10.3457H53.6279L54.8088 8.16236H55.573V11.3116H54.8957V9.1239H54.8826L53.7017 11.3116H52.9375V8.16236H53.6148ZM64.3042 8.16238C64.4518 8.16238 64.5866 8.17562 64.7082 8.20208C64.8298 8.22855 64.934 8.27196 65.0208 8.33208C65.1076 8.39244 65.175 8.47253 65.2228 8.57258C65.2703 8.67263 65.2941 8.7959 65.2941 8.94308C65.2941 9.10187 65.2589 9.23419 65.1878 9.34005C65.117 9.4459 65.0121 9.53272 64.8732 9.60028C65.0642 9.65622 65.2066 9.75396 65.3007 9.89347C65.3946 10.0332 65.4417 10.2018 65.4417 10.3986C65.4417 10.5574 65.4116 10.6948 65.3508 10.8109C65.2898 10.9272 65.2079 11.0219 65.1053 11.0955C65.0027 11.1691 64.8853 11.2234 64.7537 11.2587C64.622 11.294 64.4867 11.3116 64.3476 11.3116H62.8456V8.16238H64.3042ZM64.2697 9.90903H63.5272V10.7735H64.2564C64.3231 10.7735 64.3867 10.7668 64.4474 10.7538C64.5085 10.7403 64.5619 10.7183 64.6081 10.6874C64.6545 10.6568 64.6915 10.6147 64.7187 10.5618C64.7466 10.5089 64.7603 10.4413 64.7603 10.3589C64.7603 10.1973 64.7153 10.0817 64.6255 10.0126C64.5359 9.94362 64.417 9.90903 64.2697 9.90903ZM40.1512 8.9386H40.1425L39.7388 10.0942H40.542L40.1512 8.9386ZM45.6347 8.70042H45.105V9.64431H45.6347C45.7129 9.64431 45.788 9.63851 45.8605 9.62667C45.9329 9.61507 45.9965 9.59208 46.0515 9.55819C46.1064 9.52453 46.1507 9.47671 46.1841 9.41496C46.2172 9.35321 46.2339 9.27242 46.2339 9.17237C46.2339 9.07255 46.2172 8.99153 46.1841 8.92978C46.1507 8.86803 46.1064 8.82021 46.0515 8.78655C45.9965 8.75265 45.9329 8.7299 45.8605 8.71807C45.788 8.70623 45.7129 8.70042 45.6347 8.70042ZM64.1655 8.70049H63.5272V9.43708H64.2176C64.3389 9.43708 64.439 9.4076 64.5171 9.34887C64.5951 9.29014 64.6344 9.19449 64.6344 9.06217C64.6344 8.98881 64.6213 8.92846 64.5951 8.88133C64.5692 8.83421 64.5345 8.79753 64.4911 8.77106C64.4474 8.7446 64.3976 8.72626 64.3412 8.71581C64.2847 8.7056 64.226 8.70049 64.1655 8.70049Z" fill="white"/>
<path fill-rule="evenodd" clip-rule="evenodd" d="M14.0824 13.2481L7.53809 6.80103V32.9282L14.3358 26.2314L20.7985 19.8649L14.0824 13.2481Z" fill="white"/>
<path fill-rule="evenodd" clip-rule="evenodd" d="M21.1432 19.5258L24.4667 16.2517L8.55469 7.12402L15.7241 14.1871L21.1432 19.5258Z" fill="white"/>
<path fill-rule="evenodd" clip-rule="evenodd" d="M23.0265 22.0595L21.143 20.2039L8.87234 32.2924L8.55469 32.6052L24.466 23.4777L23.0265 22.0595Z" fill="white"/>
<path fill-rule="evenodd" clip-rule="evenodd" d="M30.6875 19.8197L24.9018 16.5012L21.4873 19.8648L23.333 21.6829L24.9016 23.228L30.6854 19.9107C30.6896 19.88 30.6898 19.8499 30.6875 19.8197Z" fill="white"/>
</g>
<defs>
<clipPath id="clip0_18_56">
<rect width="117" height="39" fill="white"/>
</clipPath>
</defs>
</svg>
