<svg width="117" height="39" viewBox="0 0 117 39" fill="none" xmlns="http://www.w3.org/2000/svg">
<g opacity="0.7" clip-path="url(#clip0_18_47)">
<path opacity="0.102" d="M115.821 29.703C115.821 30.057 115.821 30.403 115.813 30.751C115.813 31.068 115.813 31.359 115.81 31.658C115.799 32.264 115.743 32.868 115.643 33.465C115.552 34.0316 115.374 34.5807 115.116 35.093C114.86 35.593 114.526 36.049 114.126 36.444C113.728 36.8479 113.267 37.1849 112.762 37.442C112.25 37.7 111.701 37.882 111.135 37.977C110.533 38.076 109.923 38.129 109.313 38.136C109.027 38.143 108.729 38.146 108.439 38.146L107.382 38.149L8.234 38.147C7.936 38.147 7.647 38.143 7.352 38.136C6.742 38.129 6.132 38.076 5.529 37.977C4.96743 37.8803 4.42344 37.7003 3.915 37.443C3.41082 37.1882 2.95094 36.8539 2.553 36.453C2.14881 36.0561 1.81236 35.5957 1.557 35.09C1.29884 34.5816 1.1201 34.0366 1.027 33.474C0.927 32.87 0.873 32.259 0.866 31.646C0.859 31.441 0.851 30.756 0.851 30.756V8.233C0.851 8.233 0.86 7.559 0.866 7.361C0.873 6.75 0.927 6.139 1.026 5.536C1.119 4.972 1.299 4.426 1.557 3.916C1.811 3.41 2.145 2.95 2.547 2.551C2.947 2.151 3.409 1.814 3.914 1.556C4.42135 1.29925 4.96442 1.12025 5.525 1.025C6.13019 0.926406 6.74188 0.872926 7.355 0.865L8.234 0.853H108.434L109.324 0.866C109.931 0.873 110.537 0.926 111.135 1.025C111.702 1.12105 112.251 1.30067 112.765 1.558C113.776 2.08006 114.6 2.90519 115.119 3.918C115.374 4.423 115.55 4.966 115.641 5.525C115.742 6.134 115.8 6.749 115.811 7.365C115.813 7.642 115.813 7.938 115.813 8.233C115.821 8.598 115.821 8.946 115.821 9.297V29.703ZM116.665 8.233C116.665 7.934 116.665 7.634 116.661 7.336C116.65 6.68175 116.59 6.02926 116.481 5.384C116.374 4.73809 116.171 4.11202 115.877 3.527C115.275 2.35413 114.32 1.39966 113.147 0.798C112.561 0.502943 111.934 0.297008 111.287 0.187C110.642 0.0787687 109.991 0.0209269 109.337 0.014C109.04 0.01 108.735 0.004 108.439 0.002C108.088 0 107.732 0 107.382 0H9.297C8.939 0 8.586 0 8.229 0.002C7.931 0.004 7.634 0.01 7.333 0.014C6.679 0.022 6.025 0.08 5.379 0.187C4.734 0.297 4.109 0.502 3.526 0.798C2.35246 1.39849 1.3982 2.3538 0.799 3.528C0.503265 4.11238 0.297607 4.73812 0.189 5.384C0.0808805 6.02922 0.0227078 6.68183 0.015 7.336C0.005 7.634 0.005 7.934 0 8.233V30.77C0.005 31.072 0.006 31.366 0.015 31.669C0.022 32.323 0.081 32.974 0.189 33.621C0.296 34.267 0.502 34.892 0.799 35.477C1.09464 36.0604 1.48302 36.592 1.949 37.051C2.409 37.517 2.942 37.904 3.526 38.201C4.10947 38.4974 4.73408 38.7047 5.379 38.816C6.026 38.921 6.679 38.979 7.333 38.987C7.634 38.994 7.931 38.997 8.229 38.997C8.586 39 8.939 39 9.297 39H107.382C107.732 39 108.088 39 108.439 38.998C108.735 38.998 109.04 38.994 109.337 38.988C109.99 38.9799 110.642 38.9225 111.287 38.816C111.934 38.7038 112.561 38.4963 113.147 38.2C113.731 37.9032 114.263 37.515 114.724 37.05C115.189 36.5896 115.578 36.0587 115.877 35.477C116.17 34.8922 116.374 34.2665 116.48 33.621C116.589 32.974 116.65 32.323 116.66 31.669C116.665 31.366 116.665 31.072 116.665 30.769C116.672 30.415 116.672 30.063 116.672 29.703V9.297C116.672 8.941 116.672 8.587 116.665 8.233Z" fill="white"/>
<path d="M24.4372 19.2141C24.4595 17.4871 25.3659 15.8921 26.8382 14.9891C25.9039 13.6576 24.3969 12.8443 22.7712 12.7941C21.0612 12.6151 19.4012 13.8161 18.5302 13.8161C17.6402 13.8161 16.2992 12.8121 14.8532 12.8411C12.9523 12.9026 11.2227 13.9557 10.2952 15.6161C8.32517 19.0241 9.79517 24.0301 11.6832 26.7831C12.6272 28.1311 13.7312 29.6381 15.1752 29.5851C16.5892 29.5261 17.1152 28.6851 18.8232 28.6851C20.5132 28.6851 21.0082 29.5851 22.4812 29.5511C23.9982 29.5261 24.9532 28.1971 25.8642 26.8351C26.5422 25.8751 27.0642 24.8131 27.4112 23.6891C25.6111 22.93 24.4399 21.1676 24.4372 19.2141Z" fill="white"/>
<path d="M49.8998 20.845C52.0608 20.845 53.4858 22.655 53.4858 25.452C53.4858 28.255 52.0688 30.058 49.9308 30.058C48.8258 30.12 47.7858 29.506 47.2508 28.479H47.2108V32.949H45.4628V20.94H47.1548V22.441H47.1868C47.7448 21.421 48.7868 20.808 49.8998 20.845ZM59.9268 20.845C62.0878 20.845 63.5128 22.655 63.5128 25.452L63.5138 25.453C63.5138 28.256 62.0968 30.058 59.9598 30.058C58.8538 30.12 57.8138 29.506 57.2798 28.479H57.2398V32.949H55.4898V20.94H57.1828V22.441H57.2148C57.7718 21.421 58.8138 20.808 59.9268 20.845ZM72.9538 17.483C75.5338 17.483 77.3008 18.948 77.3608 21.081H75.5178C75.4068 19.847 74.4008 19.103 72.9298 19.103C71.4588 19.103 70.4528 19.856 70.4528 20.953C70.4528 21.827 71.0958 22.341 72.6668 22.735L74.0118 23.069C76.5148 23.669 77.5538 24.689 77.5538 26.497C77.5538 28.81 75.7368 30.259 72.8438 30.259C70.1388 30.259 68.3118 28.844 68.1938 26.608H70.0638C70.1998 27.833 71.3738 28.638 72.9808 28.638C74.5188 28.638 75.6268 27.833 75.6268 26.728C75.6268 25.768 74.9588 25.194 73.3768 24.801L71.7968 24.414C69.5558 23.866 68.5168 22.804 68.5168 21.081C68.5168 18.948 70.3508 17.483 72.9538 17.483ZM87.9168 20.845C90.5728 20.845 92.2628 22.531 92.2628 25.215C92.2628 27.906 90.5808 29.586 87.9168 29.586C85.2518 29.586 83.5708 27.906 83.5708 25.216C83.5708 22.531 85.2678 20.845 87.9168 20.845ZM103.014 20.845C105.444 20.845 106.971 22.466 106.971 25.053V25.653H100.768V25.758C100.657 26.98 101.586 28.06 102.845 28.168C102.939 28.176 103.035 28.178 103.131 28.175C104.005 28.255 104.831 27.765 105.159 26.975H106.871C106.628 28.523 105.076 29.586 103.089 29.586C100.535 29.586 98.9488 27.923 98.9488 25.256C98.9488 22.58 100.543 20.845 103.014 20.845ZM97.6358 20.846C97.8518 20.846 98.0688 20.868 98.2798 20.913V22.573C98.0056 22.4944 97.7209 22.4587 97.4358 22.467C96.3908 22.427 95.5098 23.193 95.4678 24.181C95.4636 24.2728 95.4669 24.3648 95.4778 24.456V29.586H93.5998V20.937H95.3908V22.409H95.4348C95.6848 21.462 96.6028 20.809 97.6358 20.846ZM39.7858 17.483L44.1258 29.586H42.1518L41.0518 26.316L36.4698 26.315L35.3698 29.586H33.4288L37.7688 17.483H39.7858ZM81.2598 18.827V20.878H82.9028V22.284H81.2598V27.057C81.2598 27.8 81.5898 28.145 82.3108 28.145C82.5058 28.141 82.7008 28.129 82.8938 28.104V29.503C82.5695 29.5641 82.2398 29.5916 81.9098 29.585C80.1608 29.585 79.4798 28.927 79.4798 27.248V22.284H78.2228V20.877H79.4778V18.827H81.2598ZM49.4378 22.425C48.1018 22.425 47.2028 23.651 47.2028 25.453C47.2028 27.271 48.1018 28.488 49.4378 28.488C50.7978 28.488 51.6878 27.297 51.6878 25.453C51.6878 23.626 50.7978 22.425 49.4378 22.425ZM59.4658 22.425C58.1298 22.425 57.2318 23.651 57.2318 25.453C57.2318 27.271 58.1298 28.488 59.4658 28.488C60.8258 28.488 61.7158 27.297 61.7158 25.453C61.7158 23.626 60.8258 22.425 59.4658 22.425ZM87.9158 22.288C86.3928 22.288 85.4858 23.383 85.4858 25.216C85.4858 27.064 86.3928 28.142 87.9158 28.142C89.4398 28.142 90.3458 27.064 90.3458 25.216C90.3458 23.375 89.4398 22.288 87.9158 22.288ZM38.7858 19.496H38.7358L36.9448 24.806L40.5768 24.805L38.7858 19.496ZM103.014 22.264C101.784 22.256 100.784 23.218 100.777 24.41V24.429H105.167C105.232 23.299 104.341 22.329 103.176 22.267C103.122 22.2641 103.068 22.2631 103.014 22.264ZM55.0708 10.086L56.1408 13.614H56.2068L57.2728 10.086H58.1658L56.5758 14.71C56.2108 15.79 55.8078 16.138 54.9378 16.138C54.8678 16.138 54.6678 16.129 54.5888 16.118L54.5898 16.117V15.363C54.6798 15.375 54.7718 15.381 54.8638 15.379C55.2422 15.4021 55.5762 15.1336 55.6348 14.759L55.6988 14.542L54.1538 10.086H55.0708ZM51.0348 10.086C52.1258 10.086 52.8168 10.974 52.8168 12.401V12.402C52.8168 13.827 52.1268 14.721 51.0428 14.721C50.4912 14.7545 49.9722 14.4581 49.7208 13.966H49.6538V16.138H48.8058V10.16H49.6208V10.902H49.6848C49.9518 10.387 50.4728 10.071 51.0348 10.086ZM64.4188 10.086V13.324H64.4908L66.6208 10.087H67.5258V14.793H66.6208V11.54H66.5528L64.4188 14.794L63.5138 14.792V10.086H64.4188ZM41.5838 10.086C42.7808 10.086 43.4568 10.653 43.4568 11.611V14.711H42.5468V14.074H42.4738C42.1527 14.5462 41.608 14.8159 41.0378 14.785C40.2458 14.865 39.5358 14.318 39.4538 13.565C39.4485 13.5199 39.4458 13.4744 39.4458 13.429C39.4458 12.612 40.0878 12.14 41.2228 12.074L42.5168 12.003V11.611C42.5168 11.131 42.1848 10.861 41.5388 10.861C41.0128 10.861 40.6488 11.046 40.5438 11.366H39.6298C39.7268 10.586 40.4998 10.086 41.5838 10.086ZM47.4688 10.086V10.868H45.5958V14.793H44.7938V10.086H47.4688ZM60.5058 10.101C61.4718 10.101 62.0238 10.587 62.0238 11.351C62.0338 11.789 61.7658 12.176 61.3818 12.277V12.347C61.8408 12.413 62.1818 12.851 62.1768 13.365C62.1768 14.225 61.5198 14.793 60.5168 14.793C59.6288 14.793 58.9078 14.341 58.8338 13.427H59.6328C59.7108 13.826 60.0468 14.034 60.5158 14.034C61.0498 14.034 61.3778 13.772 61.3778 13.365C61.3778 12.929 61.0838 12.721 60.5158 12.721H59.9078V12.027H60.5058C60.9908 12.027 61.2358 11.821 61.2358 11.442C61.2358 11.111 60.9978 10.857 60.5058 10.857C60.0558 10.857 59.7288 11.068 59.6778 11.426H58.9048C59.0248 10.572 59.7368 9.983 60.5058 10.101ZM71.5368 10.087V10.867H70.2638V14.793H69.4658V10.867H68.1938V10.087H71.5368ZM74.9218 10.086C76.1458 10.086 76.8858 10.946 76.8858 12.366V12.678H73.7788V12.728C73.7228 13.385 74.1978 13.962 74.8368 14.018C74.8743 14.0218 74.9121 14.0232 74.9498 14.022C75.3738 14.075 75.7878 13.858 75.9968 13.474H76.8328C76.5888 14.327 75.7858 14.879 74.9258 14.782C73.8218 14.812 72.9028 13.918 72.8748 12.784C72.8719 12.672 72.8782 12.5599 72.8938 12.449C72.7438 11.307 73.5238 10.258 74.6338 10.105C74.7298 10.092 74.8248 10.086 74.9218 10.086ZM82.0978 10.086C82.9088 10.086 83.3848 10.552 83.3848 11.284C83.3868 11.762 83.0948 12.176 82.6848 12.278V12.351C83.1868 12.387 83.5768 12.865 83.5708 13.436C83.5708 14.256 83.0268 14.793 82.1168 14.793H80.2298V10.086H82.0978ZM36.2888 8.073C36.3348 8.075 36.3808 8.079 36.4258 8.085C37.6558 8.085 38.5218 8.717 38.5218 9.628C38.5278 10.257 38.0548 10.804 37.3868 10.941V11.009C38.1868 11.04 38.8068 11.661 38.7758 12.396C38.6578 13.449 37.6328 14.216 36.4878 14.107C36.4718 14.107 36.4578 14.104 36.4438 14.103C35.3068 14.245 34.2608 13.514 34.1068 12.471C34.1018 12.448 34.0998 12.427 34.0968 12.404H35.0288C35.0848 12.954 35.6338 13.308 36.4438 13.308C37.2528 13.308 37.7818 12.91 37.7818 12.35C37.7818 11.78 37.2828 11.43 36.4138 11.43H35.5518V10.65H36.3868C36.9618 10.716 37.4868 10.341 37.5568 9.813C37.5605 9.78745 37.5632 9.76176 37.5648 9.736C37.5648 9.206 37.1318 8.865 36.3968 8.865C35.7868 8.787 35.2258 9.176 35.1398 9.736L35.1368 9.763H34.2198C34.2818 8.771 35.2088 8.014 36.2888 8.073ZM81.9068 12.701H81.0398V14.081H82.0098C82.4938 14.081 82.7528 13.839 82.7528 13.393C82.7528 12.923 82.4598 12.701 81.9068 12.701ZM42.5168 12.661L41.3498 12.731C40.6918 12.773 40.3938 12.987 40.3938 13.387C40.3938 13.795 40.7678 14.032 41.2798 14.032C41.8988 14.092 42.4508 13.664 42.5138 13.076L42.5168 13.04V12.661ZM50.7978 10.882C50.0838 10.882 49.6378 11.466 49.6378 12.406C49.6378 13.34 50.0838 13.926 50.7938 13.926C51.5158 13.925 51.9448 13.353 51.9448 12.402C51.9448 11.454 51.5148 10.882 50.7978 10.882ZM22.7158 7.396C22.82 8.75024 22.3924 10.0918 21.5238 11.136C20.6824 12.1847 19.4063 12.7893 18.0618 12.776C17.9761 11.4607 18.416 10.1652 19.2848 9.174C20.1644 8.17121 21.3893 7.53642 22.7158 7.396ZM81.9418 10.8H81.0398V12.019H81.8508C82.3458 12.019 82.5818 11.803 82.5818 11.404C82.5818 11.037 82.3758 10.8 81.9418 10.8ZM74.9168 10.846C74.2968 10.837 73.7868 11.347 73.7788 11.986C73.7778 11.9963 73.7778 12.0067 73.7788 12.017H75.9978C76.0428 11.417 75.6038 10.893 75.0198 10.849C74.9848 10.846 74.9508 10.845 74.9168 10.846Z" fill="white"/>
</g>
<defs>
<clipPath id="clip0_18_47">
<rect width="117" height="39" fill="white"/>
</clipPath>
</defs>
</svg>
