<svg width="22" height="22" viewBox="0 0 22 22" fill="none" xmlns="http://www.w3.org/2000/svg">
<path d="M19.4089 18.8373H18.0211V15.0821C18.0211 13.7317 16.9225 12.633 15.5721 12.633H12.5963C12.1464 12.633 11.7802 12.267 11.7799 11.8172L11.7764 5.74321C12.7051 5.39492 13.3679 4.49795 13.3679 3.44906C13.3679 2.09865 12.2693 1 10.9189 1C9.56847 1 8.46982 2.09865 8.46982 3.44906C8.46982 4.4124 9.02894 5.24761 9.8397 5.64725L7.17561 7.8392C6.98716 7.99427 6.87793 8.22558 6.87793 8.46963V12.3065C6.87793 12.7574 7.24341 13.1228 7.69428 13.1228C8.14515 13.1228 8.51064 12.7574 8.51064 12.3065V8.85511L10.1447 7.51062L10.1472 11.8181C10.148 13.1677 11.2466 14.2657 12.5963 14.2657H15.5721C16.0222 14.2657 16.3884 14.6319 16.3884 15.0821V19.6537C16.3884 20.1045 16.7539 20.47 17.2048 20.47H19.4089C19.8598 20.47 20.2253 20.1045 20.2253 19.6537C20.2253 19.2028 19.8598 18.8373 19.4089 18.8373ZM10.9189 4.26541C10.4687 4.26541 10.1025 3.8992 10.1025 3.44906C10.1025 2.99892 10.4687 2.63271 10.9189 2.63271C11.369 2.63271 11.7352 2.99892 11.7352 3.44906C11.7352 3.8992 11.369 4.26541 10.9189 4.26541Z" fill="#00ABAA"/>
<path d="M8.02086 20.266C5.29751 20.266 3.08192 18.0504 3.08192 15.327C3.08192 13.632 3.9404 12.134 5.24526 11.2443V9.37109C3.00498 10.4192 1.44922 12.6948 1.44922 15.327C1.44922 18.9506 4.39727 21.8987 8.02086 21.8987C11.4519 21.8987 14.2768 19.2555 14.5674 15.8985H12.9266C12.6424 18.3536 10.5509 20.266 8.02086 20.266Z" fill="#00ABAA"/>
</svg>
