<svg width="22" height="22" viewBox="0 0 22 22" fill="none" xmlns="http://www.w3.org/2000/svg">
<path d="M7.07173 7.93887C5.87564 7.93887 4.90332 6.96569 4.90332 5.77046C4.90332 4.57523 5.87564 3.60205 7.07173 3.60205C8.26783 3.60205 9.24014 4.57523 9.24014 5.77046C9.24014 6.96569 8.26783 7.93887 7.07173 7.93887ZM7.07173 4.9031C6.59295 4.9031 6.20437 5.29254 6.20437 5.77046C6.20437 6.24838 6.59295 6.63783 7.07173 6.63783C7.55052 6.63783 7.9391 6.24838 7.9391 5.77046C7.9391 5.29254 7.55052 4.9031 7.07173 4.9031Z" fill="#00ABAA"/>
<path d="M7.72252 19.2145H6.42147C5.58447 19.2145 4.90359 18.5336 4.90359 17.6966V14.9081C4.90359 14.8352 4.86716 14.7675 4.80731 14.7277L4.27908 14.3755C3.85494 14.0936 3.60254 13.6209 3.60254 13.1126V11.1914C3.60254 9.87561 4.672 8.80615 5.98779 8.80615H8.1562C9.47199 8.80615 10.5415 9.87561 10.5415 11.1914V13.1126C10.5415 13.6209 10.2891 14.0936 9.86578 14.3755L9.33755 14.7277C9.27771 14.7675 9.24128 14.8352 9.24128 14.9081V17.6966C9.24041 18.5336 8.55953 19.2145 7.72252 19.2145ZM5.98779 10.1072C5.39018 10.1072 4.90359 10.5938 4.90359 11.1914V13.1126C4.90359 13.1855 4.94002 13.2531 4.99986 13.293L5.52809 13.6452C5.95223 13.9271 6.20463 14.3998 6.20463 14.9081V17.6966C6.20463 17.8163 6.30178 17.9135 6.42147 17.9135H7.72252C7.84222 17.9135 7.93936 17.8163 7.93936 17.6966V14.9081C7.93936 14.3998 8.19176 13.9271 8.61504 13.6452L9.14326 13.293C9.20311 13.2531 9.23954 13.1855 9.23954 13.1126V11.1914C9.23954 10.5938 8.75295 10.1072 8.15533 10.1072H5.98779Z" fill="#00ABAA"/>
<path d="M10.7579 21.8167H3.38525C2.06946 21.8167 1 20.7473 1 19.4315V3.38525C1 2.06946 2.06946 1 3.38525 1H10.7579C12.0736 1 13.1431 2.06946 13.1431 3.38525V19.4315C13.1431 20.7473 12.0736 21.8167 10.7579 21.8167ZM3.38525 2.30105C2.78764 2.30105 2.30105 2.78764 2.30105 3.38525V19.4315C2.30105 20.0291 2.78764 20.5157 3.38525 20.5157H10.7579C11.3555 20.5157 11.8421 20.0291 11.8421 19.4315V3.38525C11.8421 2.78764 11.3555 2.30105 10.7579 2.30105H3.38525Z" fill="#00ABAA"/>
<path d="M17.9132 9.67382C17.5541 9.67382 17.2627 9.38239 17.2627 9.0233V5.55384C17.2627 5.19475 17.5541 4.90332 17.9132 4.90332C18.2723 4.90332 18.5637 5.19475 18.5637 5.55384V9.0233C18.5637 9.38239 18.2723 9.67382 17.9132 9.67382Z" fill="#00ABAA"/>
<path d="M16.3955 7.28815C16.2264 7.28815 16.0555 7.22223 15.9289 7.09039C15.6782 6.83278 15.6851 6.42078 15.9427 6.17011L17.5075 4.65223C17.6315 4.53253 17.7954 4.4562 17.9698 4.46921C18.1424 4.47181 18.3072 4.54294 18.426 4.66697L19.897 6.18486C20.1477 6.44247 20.1408 6.85447 19.8832 7.10513C19.6238 7.35494 19.2127 7.34886 18.9629 7.09039L17.9437 6.04001L16.8465 7.10513C16.7225 7.22743 16.5586 7.28815 16.3955 7.28815Z" fill="#00ABAA"/>
<path d="M17.9601 17.9136C17.601 17.9136 17.3096 17.6221 17.3096 17.263V13.7936C17.3096 13.4345 17.601 13.1431 17.9601 13.1431C18.3192 13.1431 18.6106 13.4345 18.6106 13.7936V17.263C18.6106 17.6221 18.3192 17.9136 17.9601 17.9136Z" fill="#00ABAA"/>
<path d="M17.9133 18.3474C17.7468 18.3474 17.5802 18.2841 17.4536 18.1566L15.9357 16.6387C15.6816 16.3846 15.6816 15.9726 15.9357 15.7184C16.1899 15.4643 16.6019 15.4643 16.856 15.7184L17.9142 16.7766L18.9724 15.7184C19.2265 15.4643 19.6385 15.4643 19.8926 15.7184C20.1468 15.9726 20.1468 16.3846 19.8926 16.6387L18.3747 18.1566C18.2464 18.2841 18.0798 18.3474 17.9133 18.3474Z" fill="#00ABAA"/>
</svg>
