<svg width="8" height="16" viewBox="0 0 8 16" fill="none" xmlns="http://www.w3.org/2000/svg">
<path fill-rule="evenodd" clip-rule="evenodd" d="M6.79371 8.88542C7.78743 6.46479 7.4965 3.41449 6.08365 1.4415C4.76168 -0.404653 2.61832 -0.404653 1.29633 1.4415C-0.116489 3.41449 -0.407443 6.46479 0.586288 8.88542L3.38086 15.6929C3.41234 15.7696 3.45787 15.8331 3.51277 15.8771C3.68351 16.0138 3.90126 15.9313 3.99914 15.6929L6.79371 8.88542ZM3.69 6.55579C4.27227 6.55579 4.74429 5.90919 4.74429 5.11158C4.74429 4.31397 4.27227 3.66738 3.69 3.66738C3.10773 3.66738 2.63571 4.31397 2.63571 5.11158C2.63571 5.90919 3.10773 6.55579 3.69 6.55579Z" fill="#AEEAE9"/>
</svg>
